<svg width="240" height="240" viewBox="0 0 240 240" fill="none" xmlns="http://www.w3.org/2000/svg">
<g clip-path="url(#clip0_2148_7225)">
<path d="M90.7971 224.846C96.6734 226.816 102.663 228.431 108.733 229.682C109.928 229.919 111.137 230.081 112.352 230.166C118.312 230.597 124.323 230.477 130.288 230.21C131.491 230.153 132.689 230.028 133.878 229.835C139.638 228.898 145.864 226.872 151.069 225.452C152.249 225.125 153.411 224.738 154.551 224.292C155.714 223.844 156.854 223.333 157.969 222.779C163.319 220.125 168.488 217.096 173.603 214.011C175.852 212.64 177.996 211.102 180.015 209.411C181.059 208.545 182.069 207.638 183.057 206.706C187.485 202.497 192.016 198.289 196.202 193.81C203.518 185.988 208.444 176.532 213.829 167.353C216.76 162.367 219.154 157.084 220.971 151.592C223.412 144.236 225.433 136.748 227.024 129.163C227.585 126.48 227.969 123.764 228.174 121.031C228.272 119.702 228.322 118.372 228.322 117.041C228.327 111.288 228.595 104.856 228.148 98.8486C227.964 96.3171 227.551 93.8073 226.916 91.3496C225.553 86.131 224.191 79.678 222.168 74.188C221.74 73.0531 221.25 71.9424 220.701 70.8607C218.063 65.552 215.131 60.3939 211.919 55.4105C211.253 54.3836 210.525 53.3983 209.738 52.46C205.89 47.8405 201.522 43.6324 197.16 39.506C196.226 38.6287 195.239 37.8094 194.205 37.0526C189.203 33.3673 183.243 30.3328 178.07 27.3755C176.849 26.6826 175.589 26.0602 174.296 25.5115C172.911 24.9147 171.491 24.4006 170.044 23.9719C164.503 22.332 158.87 20.5649 153.156 19.464C152.177 19.2791 151.189 19.1468 150.196 19.0677C143.489 18.5266 136.749 18.5309 130.043 19.0806C127.975 19.253 125.921 19.5582 123.892 19.9945C123.034 20.1757 122.178 20.3624 121.324 20.5547C119.601 20.1363 117.876 19.7361 116.154 19.3447C114.558 18.9824 112.937 18.7349 111.306 18.6042C104.966 18.1063 98.5978 18.1012 92.258 18.5888C91.5106 18.6458 90.7669 18.7406 90.0301 18.8598C84.7549 19.7163 78.0608 21.8996 74.0608 22.9594C72.5782 23.3509 71.1388 23.8905 69.7644 24.5701C64.9103 26.9861 60.1796 29.6892 55.5738 32.5641C54.8864 32.998 54.2252 33.4719 53.5934 33.9833C49.3233 37.4157 45.3383 41.8575 41.6756 45.4623C41.0672 46.0692 40.4943 46.7105 39.9596 47.3832C39.4447 48.0317 38.9643 48.7068 38.5204 49.4058C35.3026 54.4184 32.3506 59.6004 29.4081 64.7767C28.3751 66.6157 27.4894 68.5337 26.7595 70.5126C26.6393 70.8346 26.5253 71.1591 26.4133 71.4845C25.5318 73.1092 24.7229 74.7863 23.9866 76.5158C20.5969 84.5948 19.1628 93.3602 19.801 102.1C19.6006 107.498 19.8291 112.998 19.8881 118.212C19.9688 122.845 20.4974 127.46 21.4666 131.993C22.8969 138.85 24.8221 145.631 26.8178 152.351C27.4929 154.62 28.2768 156.859 29.1291 159.061C29.9813 161.263 30.9609 163.414 31.9946 165.527C35.0858 171.795 38.6727 177.839 42.2516 183.813C44.5652 187.676 47.2477 191.306 50.2615 194.652C54.8667 199.744 59.621 204.767 64.7672 209.341C66.3112 210.709 67.942 211.977 69.6494 213.136C75.2425 216.933 81.0663 220.522 87.1832 223.409C88.3575 223.961 89.5644 224.441 90.7971 224.846V224.846Z" fill="#B5D4E0"/>
<mask id="mask0_2148_7225" style="mask-type:alpha" maskUnits="userSpaceOnUse" x="19" y="18" width="210" height="213">
<path opacity="0.5" d="M90.7971 224.846C96.6734 226.816 102.663 228.431 108.733 229.682C109.928 229.919 111.137 230.081 112.352 230.166C118.312 230.597 124.323 230.477 130.288 230.21C131.491 230.153 132.689 230.028 133.878 229.835C139.638 228.898 145.864 226.872 151.069 225.452C152.249 225.125 153.411 224.738 154.551 224.292C155.714 223.844 156.854 223.333 157.969 222.779C163.319 220.125 168.488 217.096 173.603 214.011C175.852 212.64 177.996 211.102 180.015 209.411C181.059 208.545 182.069 207.638 183.057 206.706C187.485 202.497 192.016 198.289 196.202 193.81C203.518 185.988 208.444 176.532 213.829 167.353C216.76 162.367 219.154 157.084 220.971 151.592C223.412 144.237 225.433 136.748 227.024 129.163C227.585 126.481 227.969 123.764 228.174 121.031C228.272 119.702 228.322 118.372 228.322 117.041C228.327 111.288 228.595 104.856 228.148 98.8486C227.964 96.3171 227.551 93.8073 226.916 91.3496C225.553 86.131 224.191 79.678 222.168 74.188C221.74 73.0531 221.25 71.9424 220.701 70.8607C218.063 65.552 215.131 60.394 211.919 55.4105C211.253 54.3836 210.525 53.3983 209.738 52.46C205.89 47.8406 201.522 43.6325 197.16 39.506C196.226 38.6288 195.239 37.8094 194.205 37.0526C189.203 33.3674 183.243 30.3329 178.07 27.3755C176.849 26.6826 175.589 26.0602 174.296 25.5115C172.91 24.9148 171.491 24.4007 170.044 23.9719C164.503 22.332 158.87 20.5649 153.156 19.464C152.177 19.2792 151.189 19.1469 150.196 19.0677C143.489 18.5267 136.749 18.531 130.043 19.0806C127.975 19.253 125.921 19.5583 123.892 19.9945C123.034 20.1757 122.178 20.3625 121.324 20.5547C119.601 20.1364 117.876 19.7362 116.154 19.3447C114.558 18.9824 112.937 18.735 111.306 18.6042C104.966 18.1064 98.5978 18.1012 92.258 18.5888C91.5106 18.6458 90.7669 18.7406 90.0301 18.8599C84.7549 19.7163 78.0608 21.8997 74.0608 22.9594C72.5782 23.3509 71.1388 23.8906 69.7644 24.5701C64.9103 26.9861 60.1796 29.6892 55.5738 32.5641C54.8864 32.998 54.2252 33.4719 53.5934 33.9833C49.3233 37.4157 45.3383 41.8575 41.6756 45.4623C41.0672 46.0692 40.4942 46.7106 39.9596 47.3833C39.4447 48.0317 38.9643 48.7069 38.5204 49.4059C35.3026 54.4184 32.3505 59.6004 29.4081 64.7768C28.3751 66.6158 27.4894 68.5337 26.7595 70.5127C26.6393 70.8346 26.5253 71.1591 26.4133 71.4845C25.5318 73.1092 24.7229 74.7864 23.9866 76.5158C20.5969 84.5948 19.1628 93.3602 19.801 102.1C19.6006 107.498 19.8291 112.999 19.8881 118.212C19.9688 122.845 20.4974 127.46 21.4666 131.993C22.8969 138.85 24.8221 145.631 26.8178 152.351C27.4929 154.62 28.2768 156.859 29.1291 159.061C29.9813 161.263 30.9609 163.414 31.9946 165.527C35.0858 171.795 38.6727 177.839 42.2516 183.813C44.5652 187.676 47.2477 191.306 50.2615 194.652C54.8667 199.744 59.621 204.767 64.7672 209.341C66.3112 210.709 67.942 211.977 69.6494 213.136C75.2425 216.933 81.0663 220.522 87.1832 223.409C88.3575 223.961 89.5644 224.441 90.7971 224.846V224.846Z" fill="#C7F7FF"/>
</mask>
<g mask="url(#mask0_2148_7225)">
<path d="M60.9429 170.394C61.4277 167.849 63.9644 166.105 66.4717 166.01C73.3351 165.975 80.1984 166.002 87.0642 166C89.8066 165.856 92.5759 167.905 93.1293 170.609C93.5456 173.299 91.4178 176.009 88.7537 176.4C88.215 176.488 87.6469 176.417 87.1376 176.618C86.6553 176.889 86.6798 177.5 86.6455 177.98C86.621 180.369 86.6406 182.755 86.6333 185.144C97.9579 179.75 109.273 174.339 120.597 168.949C122.135 168.257 123.795 167.499 125.526 167.805C127.485 168.071 129.101 169.296 130.742 170.299C151.415 183.147 172.083 196.002 192.757 208.847C193.788 209.468 194.872 210.141 195.482 211.221C196.518 213.17 196.075 215.772 194.458 217.279C193.046 218.675 190.786 219.1 188.964 218.313C187.754 217.775 186.667 217.014 185.568 216.291C165.232 203.316 144.912 190.321 124.574 177.351C94.6621 191.742 64.743 206.118 34.8289 220.504C33.8911 220.944 32.9704 221.492 31.92 221.602C29.9072 221.876 27.7794 220.832 26.8147 219.037C25.7642 217.242 25.9895 214.809 27.3558 213.239C28.2691 212.087 29.726 211.649 30.9773 210.977C43.1148 204.986 55.2524 198.997 67.3948 193.011C67.4193 188.971 67.4193 184.934 67.4169 180.897C67.3679 179.679 67.5368 178.439 67.292 177.239C67.1475 176.522 66.3248 176.459 65.7371 176.444C62.7989 176.305 60.3699 173.297 60.9429 170.394Z" fill="white"/>
<path d="M54.7718 216.502C78.0455 205.349 101.307 194.166 124.566 182.977C142.039 194.144 159.492 205.342 176.953 216.526C176.953 231.326 176.948 246.125 176.955 260.924C174.644 262.467 172.989 264.871 172.149 267.499C170.102 266.37 167.82 265.303 165.415 265.687C161.627 266.35 157.982 268.954 156.863 272.745C155.139 271.608 153.261 270.566 151.172 270.331C148.542 270.045 145.873 270.793 143.604 272.101C139.85 274.224 137.876 279.122 139.304 283.22C139.771 284.553 140.663 285.947 142.152 286.25C134.25 286.196 126.351 286.253 118.449 286.245C118.454 273.468 118.449 260.692 118.452 247.915C118.415 243.64 116.941 239.312 114.013 236.148C111.192 233.05 107.139 231.154 102.969 230.837C98.1874 230.389 93.2217 232.108 89.8353 235.529C86.5102 238.811 84.8892 243.533 84.8917 248.149C84.877 260.851 84.8917 273.549 84.8843 286.25C79.6469 286.262 74.4069 286.235 69.1694 286.265C70.6875 284.453 71.3805 282.039 71.3364 279.699C71.356 277.176 69.7913 274.894 67.8178 273.439C65.4525 271.725 62.3697 271.515 59.5563 271.859C59.8379 269.573 59.571 267.111 58.2561 265.164C57.4261 263.871 56.1503 262.924 54.7694 262.286C54.7547 247.025 54.7473 231.763 54.7718 216.502ZM117.755 199.492C115.169 200.546 113.073 202.72 112.126 205.344C111.509 206.938 111.35 208.662 111.394 210.359C111.396 214.274 111.391 218.189 111.396 222.102C118.803 222.104 126.21 222.102 133.617 222.104C133.61 217.952 133.612 213.8 133.614 209.648C133.683 206.738 132.537 203.791 130.419 201.774C127.153 198.585 121.937 197.776 117.755 199.492Z" fill="white"/>
<path d="M42.1569 128.085C42.1041 125.171 39.3993 122.822 36.0681 122.822C35.4706 122.825 34.876 122.905 34.2993 123.062C33.7349 121.419 32.6566 120.001 31.2238 119.019C29.7911 118.037 28.0802 117.542 26.3442 117.607C24.6083 117.673 22.9397 118.296 21.5853 119.384C20.2309 120.472 19.2627 121.967 18.8241 123.647C17.7491 123.105 16.5604 122.825 15.3561 122.831C12.2865 122.831 9.71373 124.559 9.00813 126.892C3.95373 127.07 -0.133463 128.608 0.0033368 130.468C0.104137 131.843 47.5761 131.2 47.5761 130.084C47.5761 129.081 45.2385 128.255 42.1569 128.085Z" fill="white"/>
</g>
<g clip-path="url(#clip1_2148_7225)">
<path fill-rule="evenodd" clip-rule="evenodd" d="M150.18 175.698C149.196 175.552 148.516 174.636 148.662 173.651L153.963 137.907C154.109 136.923 155.026 136.243 156.01 136.389C156.994 136.535 157.674 137.451 157.528 138.436L152.227 174.18C152.081 175.164 151.164 175.844 150.18 175.698Z" fill="#F1AC49"/>
<path fill-rule="evenodd" clip-rule="evenodd" d="M130.965 172.846C129.981 172.7 129.301 171.784 129.447 170.799L134.748 135.056C134.894 134.071 135.811 133.392 136.795 133.538C137.779 133.684 138.459 134.6 138.313 135.585L133.012 171.328C132.866 172.313 131.949 172.992 130.965 172.846Z" fill="#F1AC49"/>
<mask id="mask1_2148_7225" style="mask-type:alpha" maskUnits="userSpaceOnUse" x="137" y="170" width="16" height="6">
<path d="M137.992 170.242L152.492 172.393L151.963 175.96L137.463 173.81L137.992 170.242Z" fill="white"/>
</mask>
<g mask="url(#mask1_2148_7225)">
<path fill-rule="evenodd" clip-rule="evenodd" d="M152.273 173.866L152.181 174.488C152.061 175.3 151.304 175.863 150.49 175.742L138.936 174.028C138.122 173.908 137.561 173.15 137.681 172.337L137.774 171.715C137.894 170.902 138.651 170.34 139.465 170.461L151.019 172.174C151.833 172.295 152.394 173.053 152.273 173.866Z" fill="#F1AC49"/>
</g>
<mask id="mask2_2148_7225" style="mask-type:alpha" maskUnits="userSpaceOnUse" x="118" y="167" width="16" height="7">
<path d="M118.777 167.398L133.277 169.549L132.748 173.116L118.248 170.966L118.777 167.398Z" fill="white"/>
</mask>
<g mask="url(#mask2_2148_7225)">
<path fill-rule="evenodd" clip-rule="evenodd" d="M133.059 171.022L132.966 171.644C132.846 172.457 132.089 173.019 131.275 172.898L119.721 171.185C118.907 171.064 118.346 170.306 118.467 169.493L118.559 168.871C118.679 168.058 119.436 167.496 120.25 167.617L131.804 169.33C132.618 169.451 133.179 170.209 133.059 171.022Z" fill="#F1AC49"/>
</g>
<path fill-rule="evenodd" clip-rule="evenodd" d="M95.6326 133.549C78.0336 126.456 68.2483 105.875 73.7762 87.5796L137.509 113.27C131.98 131.564 113.232 140.643 95.6326 133.549Z" fill="#3680A0"/>
<path fill-rule="evenodd" clip-rule="evenodd" d="M55.8721 80.5348L55.231 82.1558C53.3096 87.0143 55.712 92.5613 60.5705 94.4827L73.6455 99.6555C73.6455 99.6555 75.2185 95.68 77.1406 90.8221L77.7817 89.2011L55.8721 80.5348Z" fill="#3680A0"/>
<path fill-rule="evenodd" clip-rule="evenodd" d="M144.871 112.142C144.887 112.042 144.908 111.944 144.922 111.845L151.308 68.7902C152.762 58.9864 146.05 49.794 136.393 48.3618C126.737 46.9296 117.646 53.7782 116.192 63.582L110.048 105.009C109.935 105.769 109.635 108.152 109.618 108.901C107.092 132.962 123.962 154.957 148.122 158.54C172.935 162.22 196.033 145.089 199.714 120.276L144.871 112.142Z" fill="white"/>
<path fill-rule="evenodd" clip-rule="evenodd" d="M130.657 64.1577C130.385 65.9923 131.651 67.7 133.486 67.9721C135.32 68.2442 137.028 66.9777 137.3 65.143C137.572 63.3084 136.306 61.6007 134.471 61.3286C132.637 61.0565 130.929 62.323 130.657 64.1577Z" fill="#2F657E"/>
<path fill-rule="evenodd" clip-rule="evenodd" d="M212.142 110.962C218.111 111.848 222.231 117.404 221.346 123.374L199.731 120.168C200.616 114.199 206.172 110.077 212.142 110.962Z" fill="white"/>
<path fill-rule="evenodd" clip-rule="evenodd" d="M155.479 147.391C137.281 144.692 124.717 127.752 127.416 109.555L193.315 119.328C190.616 137.526 173.676 150.09 155.479 147.391Z" fill="#3680A0"/>
<path fill-rule="evenodd" clip-rule="evenodd" d="M132.727 80.2711C134.097 76.9272 137.671 74.803 141.449 75.3632L165.958 78.9983C170.205 79.6282 173.222 83.4316 172.89 87.5904C171.737 86.5596 170.278 85.8406 168.636 85.5969L132.727 80.2711Z" fill="#F5CA86"/>
<path fill-rule="evenodd" clip-rule="evenodd" d="M159.379 90.5699L138.451 87.466C134.672 86.9055 131.712 85.5465 132.264 81.8231C132.345 81.2761 132.493 80.7545 132.695 80.2632L163.355 84.8106L167.155 85.3742C167.143 85.5249 166.959 86.8135 166.937 86.9655C166.384 90.6889 163.159 91.1305 159.379 90.5699Z" fill="#F1AC49"/>
<path fill-rule="evenodd" clip-rule="evenodd" d="M165.959 78.9975L164.132 78.7266L163.232 84.7946L168.636 85.5961C170.279 85.8398 171.738 86.5598 172.89 87.5896C173.222 83.4318 170.206 79.6274 165.959 78.9975Z" fill="#3680A0"/>
<path fill-rule="evenodd" clip-rule="evenodd" d="M163.354 84.8072L163.231 84.7891L162.348 90.7488C164.739 90.625 166.538 89.6525 166.937 86.9623C166.959 86.8113 167.143 85.5215 167.155 85.371L163.354 84.8072Z" fill="#2F657E"/>
<path fill-rule="evenodd" clip-rule="evenodd" d="M49.9044 28.2073L49.2313 28.2269C47.0122 28.2958 44.8659 28.963 43.0234 30.1595C39.2563 32.6057 37.1262 36.9784 37.4656 41.5703L37.5094 42.1649L36.9849 41.8824C32.9272 39.7052 28.067 39.8718 24.2991 42.3186C22.4566 43.5151 20.9741 45.2044 20.0102 47.2025L19.7167 47.8105C16.6403 54.1877 19.4042 62.3135 25.6306 65.2003C33.937 69.0527 57.3695 76.1876 58.3636 76.4885C58.7943 76.6191 59.265 76.5513 59.6472 76.3043L59.648 76.3037C60.0297 76.0559 60.2831 75.6535 60.3387 75.2083C60.4691 74.1772 63.525 49.8401 63.3857 40.6829C63.2812 33.8207 56.9816 27.9909 49.9044 28.2073" fill="#FF7847"/>
</g>
<path d="M67.1169 138.163C67.0641 135.25 64.3593 132.9 61.0281 132.9C60.4306 132.903 59.836 132.984 59.2593 133.14C58.6949 131.497 57.6165 130.079 56.1838 129.097C54.7511 128.115 53.0401 127.62 51.3042 127.685C49.5683 127.751 47.8996 128.374 46.5452 129.462C45.1909 130.55 44.2227 132.045 43.7841 133.726C42.709 133.183 41.5204 132.903 40.3161 132.91C37.2465 132.91 34.6737 134.638 33.9681 136.97C28.9137 137.148 24.8265 138.686 24.9633 140.546C25.0641 141.922 72.5361 141.278 72.5361 140.162C72.5361 139.159 70.1985 138.334 67.1169 138.163Z" fill="white"/>
</g>
<defs>
<clipPath id="clip0_2148_7225">
<rect width="240" height="240" fill="white"/>
</clipPath>
<clipPath id="clip1_2148_7225">
<rect width="240" height="240" fill="white"/>
</clipPath>
</defs>
</svg>
