<?xml version="1.0" encoding="UTF-8"?>
<svg width="276px" height="128px" viewBox="0 0 276 128" version="1.1" xmlns="http://www.w3.org/2000/svg" xmlns:xlink="http://www.w3.org/1999/xlink">
    <!-- Generator: Sketch 54.1 (76490) - https://sketchapp.com -->
    <title>main_logo</title>
    <desc>Created with Sketch.</desc>
    <g id="main_logo" stroke="none" stroke-width="1" fill="none" fill-rule="evenodd">
        <g>
            <g id="new-logo/normal" transform="translate(80.000000, 41.000000)" fill="#6FCFEB" fill-rule="nonzero">
                <g id="Group">
                    <g id="AsiaYo" transform="translate(0.339740, 0.011236)">
                        <path d="M31.2743386,33.6547641 L31.407047,33.6547641 L31.4621266,33.7753746 L37.2154131,46.3320368 L47.5974762,46.3321599 L26.3611692,0.0623974804 L22.1658822,0.0623974804 L0.0384447836,46.3321599 L6.52932898,46.3321599 L12.5747712,33.7718055 L12.631083,33.6547641 L12.761327,33.6547641 L31.2743386,33.6547641 Z M14.3443402,30.1746585 L22.0458654,13.9431908 L22.2359946,13.5429608 L22.4208253,13.9455292 L29.8751703,30.1769968 L30.009727,30.4695389 L29.6873823,30.4695389 L14.5311425,30.4695389 L14.2043618,30.4695389 L14.3443402,30.1746585 Z" id="Shape"></path>
                        <path d="M74.293189,33.0466656 C73.6642717,31.956125 72.8211973,30.9471811 71.7873777,30.0485097 C70.7375394,29.1363004 69.5163014,28.3054416 68.1576726,27.5794402 C66.7810536,26.8442083 65.3339525,26.1676818 63.8566624,25.5688137 C62.860425,25.1490152 61.9246888,24.7011564 61.072989,24.2370521 C60.2039151,23.7638404 59.442043,23.2541995 58.8085666,22.7222825 C58.1515551,22.1720278 57.6263895,21.5684829 57.2473634,20.9287549 C56.8478826,20.2559205 56.645185,19.5215502 56.645185,18.7458277 C56.645185,18.1128686 56.8144899,17.535415 57.1484173,17.02922 C57.4659564,16.5459165 57.8959959,16.1405175 58.4265832,15.8244687 C58.9337586,15.5238039 59.5143734,15.2934132 60.1531482,15.1395733 C60.7831745,14.9886871 61.4543563,14.9122594 62.1480875,14.9122594 C62.5421465,14.9122594 63.0011427,14.9468426 63.5125077,15.0146552 C64.081663,15.0908368 64.6525434,15.3046128 65.2093766,15.6508142 C65.7569683,15.9917235 66.2921148,16.5054258 66.8001528,17.1773987 C67.2224293,17.7366376 67.5933229,18.4860228 67.9038384,19.4075855 L72.8011124,17.6902395 C72.2890082,16.8945793 71.7341464,16.1630396 71.1494654,15.5128505 C70.4309668,14.7130059 69.5819779,14.0208492 68.6259103,13.4557028 C67.668857,12.8909256 66.5422523,12.451928 65.2773943,12.1513862 C64.0002142,11.8483831 62.5078912,11.6947893 60.8426899,11.6947893 C59.0398514,11.6947893 57.3677497,11.9275184 55.8728391,12.3863306 C54.3930846,12.8410815 53.1107293,13.4883169 52.0612606,14.3101914 C51.0239908,15.1228355 50.2043283,16.1107341 49.6250689,17.2468113 C49.0496293,18.3771041 48.7578433,19.6489296 48.7578433,21.0270894 C48.7578433,22.4835229 49.0727948,23.77504 49.6941956,24.8657036 C50.3307525,25.9846738 51.1818362,26.995833 52.2234187,27.8711207 C53.284963,28.7640077 54.4960969,29.5685291 55.8234277,30.2625318 C57.1821797,30.9732724 58.5543628,31.6369994 59.9020249,32.2345137 C60.787364,32.6330207 61.6295758,33.064511 62.4062344,33.5181542 C63.2043333,33.9854584 63.8991735,34.5010068 64.4717789,35.0507693 C65.0632372,35.6180079 65.5368966,36.2651202 65.8800656,36.9747531 C66.2322297,37.7023545 66.4110225,38.5321056 66.4110225,39.440992 C66.4110225,40.0349372 66.2662385,40.5995913 65.9808599,41.1190781 C65.703121,41.6234269 65.3093084,42.0688243 64.8102655,42.44284 C64.3261324,42.805533 63.742437,43.0980751 63.0748286,43.3119741 C62.4100542,43.5253809 61.6701153,43.6335611 60.8754666,43.6335611 C58.9929044,43.6335611 57.4006496,43.0386313 56.1431848,41.8653864 C55.0445512,40.8414277 54.1610605,39.4556375 53.5151388,37.7446912 L48.6512576,39.608739 C49.0849936,40.3584934 49.5735627,41.1219087 50.1058751,41.8810165 C50.7532754,42.805533 51.5895727,43.6557141 52.5912318,44.4078068 C53.5899336,45.1594072 54.8347067,45.7825205 56.2910494,46.2599166 C57.748501,46.7387896 59.55442,46.9817336 61.6587791,46.9817336 C64.1525147,46.9817336 66.2956882,46.705314 68.0281679,46.1603514 C69.7369892,45.6224039 71.1442901,44.8772032 72.2107632,43.9455485 C73.2649142,43.024478 74.034426,41.9343067 74.4979814,40.7048179 C74.9720105,39.449607 75.2122904,38.0814161 75.2122904,36.6381513 C75.2120439,35.3136509 74.9027606,34.1054536 74.293189,33.0466656" id="Shape"></path>
                        <path d="M89.3210331,1.4309576 C88.8532882,1.0127591 88.2969478,0.675665024 87.6679074,0.429398045 C87.0419475,0.185346362 86.36596,0.0615359767 85.6590442,0.0615359767 C84.9517588,0.0615359767 84.2756481,0.185346362 83.6491953,0.429644189 C83.0204013,0.675665024 82.4641841,1.01251296 81.996316,1.4309576 C81.5362108,1.84287943 81.1708622,2.3340596 80.9107438,2.89083711 C80.6544452,3.4407226 80.5244476,4.03885229 80.5244476,4.66861148 C80.5244476,5.29898603 80.6544452,5.89736186 80.9107438,6.44700121 C81.1691371,7.00094807 81.5326374,7.48523621 81.991264,7.88595849 C82.4625823,8.29763417 83.0205245,8.6305438 83.6491953,8.87582621 C84.2622171,9.11507808 84.956934,9.24147298 85.6587978,9.24147298 C86.3602919,9.24147298 87.0552553,9.11507808 87.6680306,8.87582621 C88.2978104,8.63017459 88.8556294,8.29714188 89.3262083,7.88595849 C89.7869296,7.48388241 90.1570839,6.99725591 90.4265671,6.43961689 C90.6919839,5.89046983 90.8266639,5.29480158 90.8266639,4.66861148 C90.8266639,4.0436521 90.6919839,3.44798385 90.4265671,2.89797529 C90.1563446,2.33898247 89.7842188,1.84534087 89.3210331,1.4309576" id="Shape"></path>
                        <polygon id="Shape" points="80.9811027 46.3321599 90.4348228 46.3321599 90.4348228 13.9291606 80.9811027 16.6462201"></polygon>
                        <path d="M122.153248,14.1995497 C121.040814,13.4181659 119.595314,12.8005908 117.857536,12.3645469 C116.095484,11.921734 113.963647,11.6973738 111.520924,11.6973738 C109.527217,11.6973738 107.611139,11.9059808 105.825551,12.3179026 C104.048219,12.7278553 102.461263,13.307155 101.108795,14.0394331 C99.7807251,14.759404 98.714252,15.6147541 97.9394417,16.5820996 C97.200119,17.5044009 96.8254056,18.5183907 96.8254056,19.5962549 C96.8254056,20.1415867 96.9344557,20.6594735 97.149845,21.1353927 C97.3672059,21.6174655 97.6677406,22.0375101 98.0434398,22.38445 C98.4204944,22.7324974 98.8884857,23.0108862 99.4349685,23.2117396 C99.9872426,23.4155468 100.606302,23.5189272 101.27502,23.5189272 C102.16652,23.5189272 102.893151,23.393763 103.434089,23.1471269 C103.964553,22.9052905 104.385474,22.5853034 104.684899,22.1959037 C104.991472,21.7969045 105.209202,21.3277542 105.33156,20.8021139 C105.462421,20.2375828 105.52859,19.6342841 105.52859,19.0092016 C105.52859,18.388919 105.613735,17.7952199 105.782054,17.2449652 C105.957644,16.6673885 106.252264,16.1490094 106.658029,15.7048428 C107.065888,15.2598146 107.600419,14.9083211 108.247449,14.6598388 C108.876243,14.4182486 109.659309,14.2955458 110.574591,14.2955458 C111.358273,14.2955458 112.079729,14.4176332 112.718997,14.658485 C113.38907,14.9112748 113.964016,15.3257811 114.428434,15.8901891 C114.88053,16.4398285 115.235282,17.1500767 115.482832,18.0013654 C115.725822,18.8327165 115.849043,19.8406758 115.849043,20.997429 L115.849043,24.7799225 L115.849043,24.9455773 L115.687131,24.9816374 L114.223642,25.3067935 C112.862302,25.7480064 111.4274,26.2153106 109.970564,26.693199 C108.530117,27.1657953 107.12257,27.6867589 105.786983,28.2418134 C104.459776,28.7930527 103.199107,29.4176429 102.039972,30.0971231 C100.900676,30.76565 99.8956898,31.5256193 99.0528618,32.3570934 C98.2228488,33.1760142 97.5590602,34.1024999 97.0804719,35.1108284 C96.6084143,36.1024191 96.368997,37.2421885 96.368997,38.49863 C96.368997,39.6955048 96.5947369,40.8251822 97.0394395,41.8559098 C97.4821706,42.8823299 98.1314192,43.7856781 98.9690719,44.5410937 C99.810298,45.3006938 100.853852,45.9035003 102.070654,46.332406 C103.296944,46.7648809 104.697961,46.984072 106.235013,46.984072 C107.385276,46.984072 108.390262,46.8998908 109.222246,46.7346052 C110.044497,46.5699349 110.786407,46.3370827 111.4274,46.0425716 C112.075539,45.7444913 112.673282,45.3969361 113.204239,45.0090133 C113.753925,44.608291 114.324313,44.1568631 114.900122,43.6670367 L115.508215,43.1490269 L115.849289,42.8587001 L115.849289,43.3063128 L115.849289,46.3321599 L125.367823,46.3321599 L125.367823,20.6712884 C125.367823,19.3104818 125.10179,18.067455 124.576748,16.9771606 C124.055402,15.8981888 123.240052,14.9635804 122.153248,14.1995497 Z M116.29276,28.148648 L116.29276,38.8882758 L116.29276,38.9722109 L116.23423,39.03227 C115.913117,39.3621029 115.591389,39.6728595 115.278039,39.9562942 C114.960623,40.243298 114.605872,40.5120872 114.223026,40.7545389 C113.839317,40.9980983 113.396832,41.2145819 112.908017,41.3982053 C112.42105,41.5803517 111.837601,41.7316072 111.173935,41.847664 C110.679575,41.9339375 110.20456,41.9775049 109.762075,41.9775049 C109.397959,41.9775049 109.046534,41.9482138 108.717412,41.8895085 C107.980431,41.7585599 107.344613,41.5010934 106.827703,41.1246163 C106.306974,40.7455547 105.90355,40.2544976 105.628152,39.6643676 C105.354603,39.0790374 105.215733,38.4124797 105.215733,37.6834014 C105.215733,36.9204784 105.362858,36.1986614 105.652919,35.5380111 C105.939653,34.8842529 106.335314,34.2623703 106.828812,33.6897165 C107.318121,33.1214933 107.899352,32.5794844 108.556609,32.0791969 C109.210787,31.581617 109.920537,31.1059439 110.66676,30.6655925 C111.409902,30.2272102 112.192106,29.8005197 112.991684,29.3980744 C113.790029,28.9973522 114.576299,28.603768 115.350616,28.2186759 L116.009476,27.9566557 L116.292636,27.844168 L116.292636,28.148648 L116.29276,28.148648 Z" id="Shape"></path>
                        <polygon id="Shape" points="160.355041 0.0621513365 145.145447 20.6752267 144.984028 20.8939255 144.816201 20.6800265 128.629962 0.0621513365 118.062698 0.0646127755 136.089728 23.3357962 136.181651 23.4503761 137.996442 25.7961276 138.039569 46.3321599 148.308516 46.3321599 148.308516 25.2436576 166.622157 0.0621513365"></polygon>
                        <path d="M189.040887,16.6382205 C187.373222,15.1046208 185.360539,13.8837471 183.059027,13.0100593 C180.753818,12.1352638 178.215354,11.6914664 175.513992,11.6914664 C172.815094,11.6914664 170.289074,12.1453557 168.006292,13.040458 C165.727576,13.9345758 163.732514,15.1917558 162.076677,16.7766764 C160.42121,18.361597 159.109775,20.2765966 158.178351,22.4693696 C157.245326,24.6638656 156.772036,27.1006903 156.772036,29.7119079 C156.772036,32.1252259 157.243971,34.4107951 158.174778,36.5048644 C159.106325,38.6031181 160.417021,40.4479667 162.070639,41.9875968 C163.727215,43.5317806 165.728932,44.7627463 168.020093,45.6464029 C170.313472,46.5319056 172.845529,46.9812413 175.546029,46.9812413 C178.239628,46.9812413 180.766757,46.4957225 183.057425,45.5382227 C185.349818,44.5801075 187.357696,43.2578225 189.025361,41.6075506 C190.69315,39.9586326 192.018263,38.0021578 192.963857,35.7928931 C193.907233,33.5871976 194.385575,31.200094 194.385575,28.6982873 C194.385575,26.3321059 193.909204,24.0928117 192.969648,22.0428022 C192.027751,19.9883621 190.706089,18.1698509 189.040887,16.6382205 M175.888828,43.8301071 C175.753039,43.8301071 175.616881,43.8243227 175.47949,43.8122616 C171.037639,43.422862 167.423952,36.7068255 167.423952,28.8405585 C167.423952,21.2087436 170.798468,15.2300312 175.106502,15.2296619 C175.242537,15.2296619 175.378449,15.2355694 175.515593,15.2476305 C179.957568,15.636907 183.571254,22.3533128 183.571254,30.2194567 C183.571131,37.8515177 180.196739,43.8301071 175.888828,43.8301071" id="Shape"></path>
                    </g>
                </g>
            </g>
            <rect id="Rectangle-5" x="0" y="0" width="276" height="128"></rect>
            <g id="AsiaYo-logo" transform="translate(0.000000, 31.000000)">
                <path d="M30,0 C13.1648814,1.60558698 -7.10542736e-15,15.7026336 -7.10542736e-15,32.857656 C-7.10542736e-15,39.1352581 1.76301773,45.0032753 4.82349745,50 C20.0677902,38.5492312 29.9503974,20.4021187 30,0" id="Fill-16" fill="#57C2E9"></path>
                <path d="M42,38.0593749 C38.4653594,32.8357625 35.6466662,27.1044757 33.6893472,21 C30.8220619,29.941743 26.1114219,38.0851713 20,45 L42,38.0593749 Z" id="Fill-18" fill="#F9BE00"></path>
                <path d="M43.1422961,40 L9.04987943,55.2246602 C9.04280434,55.2172605 9.03643675,55.2095084 9.02971541,55.2021088 C9.01981027,55.2095084 9.00990514,55.2172605 9,55.2246602 C15.0640657,61.8449049 23.794028,66 33.5,66 C43.2056182,66 51.9355805,61.8449049 58,55.2246602 C52.3024243,50.9377804 47.2858267,45.7988806 43.1422961,40" id="Fill-20" fill="#F9BE00"></path>
                <path d="M37,0 L37,0 C37.0007085,0.000352177159 37.0014171,0.000352177159 37.0024799,0.000352177159 C37.0350732,13.4186541 41.3214454,25.860721 48.5883325,36.064702 L60.6255314,32.2277318 L49.4311526,37.2170257 C53.0458196,42.0569964 57.3399858,46.3665882 62.1769013,50 C65.237128,45.0033105 67,39.1353346 67,32.8577768 C67,15.7021708 53.8351441,1.60416696 37,0" id="Fill-22" fill="#57C2E9"></path>
            </g>
        </g>
    </g>
</svg>