<svg width="240" height="240" viewBox="0 0 240 240" fill="none" xmlns="http://www.w3.org/2000/svg">
<g clip-path="url(#clip0_2099_7421)">
<path opacity="0.5" d="M180.082 226.23C186.075 223.316 191.887 220.044 197.487 216.431C198.582 215.713 199.631 214.926 200.627 214.077C205.527 209.92 210.056 205.296 214.424 200.607C215.301 199.66 216.122 198.663 216.884 197.621C220.596 192.559 223.842 186.321 226.763 181.312C227.425 180.174 228.028 179.002 228.57 177.801C229.12 176.583 229.612 175.322 230.055 174.063C232.163 167.995 233.846 161.774 235.449 155.558C236.144 152.814 236.632 150.021 236.909 147.204C237.057 145.753 237.15 144.294 237.202 142.836C237.441 136.272 237.737 129.623 237.575 123.027C237.307 111.503 233.965 100.521 231.196 89.4155C229.689 83.3769 227.547 77.5149 224.805 71.9277C221.14 64.4402 217.052 57.1669 212.562 50.143C210.971 47.6604 209.219 45.2844 207.319 43.0301C206.395 41.9352 205.43 40.876 204.426 39.8525C200.092 35.4308 195.465 30.2683 190.593 26.0058C188.545 24.2049 186.34 22.5922 184.003 21.1873C179.029 18.2044 173.12 14.2723 167.435 11.5791C166.247 11.0173 165.028 10.5219 163.785 10.0952C157.763 8.00381 151.628 6.24944 145.411 4.84024C144.124 4.55003 142.821 4.33864 141.509 4.20727C135.078 3.55454 128.557 3.61147 122.101 3.72476C120.724 3.75507 119.35 3.8685 117.986 4.06445C111.361 5.00659 104.514 7.1598 98.3163 8.78431C96.8572 9.17163 95.4215 9.64226 94.0163 10.1939C92.5032 10.7774 91.0255 11.4492 89.591 12.2056C84.1038 15.1209 78.4492 18.0044 73.2362 21.4615C72.3466 22.0584 71.489 22.7016 70.6669 23.3883C65.1127 28.0259 59.9448 33.1076 55.2145 38.5831C53.7573 40.2742 52.412 42.0585 51.1871 43.9248C50.6636 44.7079 50.1459 45.4991 49.6357 46.2899C47.999 47.2671 46.3728 48.2557 44.7572 49.2557C43.2599 50.1799 41.8304 51.2097 40.4795 52.337C35.2399 56.7303 30.3492 61.5234 25.8513 66.6734C25.3172 67.28 24.8218 67.9126 24.3455 68.5608C20.9443 73.1897 17.4491 79.9005 15.1789 83.7353C14.337 85.154 13.6391 86.6534 13.0957 88.2111C11.1851 93.7286 9.59276 99.3652 8.22762 105.041C8.02657 105.892 7.87602 106.754 7.77674 107.623C7.08576 113.476 7.3739 119.89 7.2776 125.419C7.26742 126.344 7.31042 127.268 7.40638 128.187C7.5015 129.073 7.64174 129.953 7.82658 130.824C9.13308 137.099 10.7696 143.307 12.4097 149.498C12.9988 151.687 13.7599 153.825 14.6861 155.894C14.8356 156.232 14.9918 156.568 15.1517 156.9C15.6984 158.814 16.3428 160.716 17.0848 162.606C20.5687 171.366 26.0702 179.18 33.1422 185.414C37.0534 189.714 41.3601 193.775 45.3424 197.727C48.8919 201.227 52.7715 204.377 56.9271 207.131C63.1958 211.315 69.7778 215.065 76.3704 218.731C78.5978 219.968 80.8832 221.097 83.2071 222.14C85.531 223.184 87.8834 224.111 90.2766 224.951C97.3654 227.44 104.658 229.388 111.924 231.274C116.61 232.497 121.402 233.265 126.235 233.565C133.601 234.002 141.045 234.287 148.43 233.924C150.646 233.814 152.853 233.559 155.036 233.162C162.191 231.876 169.366 230.236 176.231 227.861C177.547 227.396 178.833 226.852 180.082 226.23V226.23Z" fill="#43B7DE"/>
<path d="M55.038 88.06C55.1942 87.4746 55.4771 86.9306 55.8667 86.4665C56.2563 86.0024 56.743 85.6296 57.2926 85.3743C57.8421 85.119 58.441 84.9875 59.0469 84.9892C59.6528 84.9908 60.251 85.1255 60.7992 85.3837L148.129 123.608C150.552 124.66 151.911 127.604 151.162 130.135L132.235 193.999C132.078 194.584 131.795 195.127 131.405 195.591C131.016 196.054 130.529 196.427 129.98 196.682C129.43 196.937 128.832 197.069 128.226 197.068C127.621 197.066 127.023 196.932 126.474 196.675L39.1457 158.449C36.7207 157.396 35.3601 154.454 36.1054 151.931L55.038 88.06Z" fill="#FFE47A"/>
<path d="M56.3091 123.946C57.7653 121.745 60.9361 120.81 63.3566 121.869L101.966 138.763C104.389 139.815 107.812 139.083 109.581 137.126L111.015 135.539C112.787 133.578 116.209 132.848 118.625 133.913L156.839 150.76C159.255 151.824 160.039 154.497 158.583 156.698L133.456 194.675C131.998 196.878 128.827 197.813 126.41 196.753L39.0815 158.528C36.6565 157.474 35.8755 154.801 37.3335 152.602L56.3091 123.946Z" fill="#FFFCE6"/>
<path fill-rule="evenodd" clip-rule="evenodd" d="M217.589 84.2395L212.854 79.5238C210.492 77.1721 206.629 77.1721 204.269 79.5238L201.405 82.3762L214.725 95.6417L217.589 92.7894C219.95 90.4388 219.95 86.5913 217.589 84.2395Z" fill="#F7ECE4"/>
<path fill-rule="evenodd" clip-rule="evenodd" d="M164.582 119.115C164.501 119.286 164.44 119.466 164.398 119.65L161.259 133.862C160.921 135.337 161.828 136.26 163.275 135.916L177.366 132.564C177.564 132.517 177.737 132.452 177.892 132.377L164.582 119.115Z" fill="#FFBB99"/>
<path fill-rule="evenodd" clip-rule="evenodd" d="M162.523 128.715C162.364 128.655 162.364 128.773 162.305 128.953L161.024 134.539C160.898 135.121 161.462 136.082 162.629 136.004C163.796 135.927 164.192 135.737 165.054 135.528C165.916 135.32 167.14 135.023 167.14 135.023C167.97 134.798 168.372 134.964 167.353 133.948L162.523 128.715Z" fill="#040000"/>
<path fill-rule="evenodd" clip-rule="evenodd" d="M215.344 95.0365L177.867 132.365L164.547 119.098L202.024 81.771L215.344 95.0365Z" fill="#013A5E"/>
<path fill-rule="evenodd" clip-rule="evenodd" d="M213.579 96.8181L200.321 83.5119L201.174 82.668L214.432 95.9742L213.579 96.8181Z" fill="#0F7AAB"/>
<path fill-rule="evenodd" clip-rule="evenodd" d="M167.959 122.409L204.16 86.6484L205.007 87.499L168.805 123.26L167.959 122.409Z" fill="#0F7AAB"/>
<path fill-rule="evenodd" clip-rule="evenodd" d="M173.025 127.552L209.227 91.7912L210.073 92.6418L173.871 128.402L173.025 127.552Z" fill="#0F7AAB"/>
<path fill-rule="evenodd" clip-rule="evenodd" d="M188.22 155.728C185.278 155.728 182.894 158.113 182.894 161.054C182.894 163.995 185.278 166.38 188.22 166.38C191.161 166.38 193.545 163.995 193.545 161.054C193.545 158.113 191.161 155.728 188.22 155.728ZM182.174 161.054C182.174 157.715 184.881 155.008 188.22 155.008C191.559 155.008 194.265 157.715 194.265 161.054C194.265 164.393 191.559 167.1 188.22 167.1C184.881 167.1 182.174 164.393 182.174 161.054Z" fill="white"/>
<path fill-rule="evenodd" clip-rule="evenodd" d="M144.339 104.405C142.868 104.405 141.676 105.597 141.676 107.068C141.676 108.539 142.868 109.731 144.339 109.731C145.809 109.731 147.001 108.539 147.001 107.068C147.001 105.597 145.809 104.405 144.339 104.405ZM141.316 107.068C141.316 105.399 142.669 104.045 144.339 104.045C146.008 104.045 147.361 105.399 147.361 107.068C147.361 108.737 146.008 110.091 144.339 110.091C142.669 110.091 141.316 108.737 141.316 107.068Z" fill="white"/>
<path fill-rule="evenodd" clip-rule="evenodd" d="M103.959 73.4075C101.556 73.4075 99.6069 75.3562 99.6069 77.7599C99.6069 80.1637 101.556 82.1124 103.959 82.1124C106.363 82.1124 108.312 80.1637 108.312 77.7599C108.312 75.3562 106.363 73.4075 103.959 73.4075ZM99.0184 77.7599C99.0184 75.0312 101.231 72.8191 103.959 72.8191C106.688 72.8191 108.9 75.0312 108.9 77.7599C108.9 80.4887 106.688 82.7008 103.959 82.7008C101.231 82.7008 99.0184 80.4887 99.0184 77.7599Z" fill="white"/>
<path d="M126.653 91.791C127.857 91.791 128.832 90.8154 128.832 89.6118C128.832 88.4083 127.857 87.4326 126.653 87.4326C125.45 87.4326 124.474 88.4083 124.474 89.6118C124.474 90.8154 125.45 91.791 126.653 91.791Z" fill="#50C9EB"/>
<path d="M126.653 69.8204C131.797 69.8204 135.966 65.6509 135.966 60.5076C135.966 55.3643 131.797 51.1948 126.653 51.1948C121.51 51.1948 117.34 55.3643 117.34 60.5076C117.34 65.6509 121.51 69.8204 126.653 69.8204Z" fill="#57CAEB"/>
<path d="M71.4428 69.0547C75.1377 69.0547 78.133 66.0594 78.133 62.3645C78.133 58.6696 75.1377 55.6743 71.4428 55.6743C67.7479 55.6743 64.7526 58.6696 64.7526 62.3645C64.7526 66.0594 67.7479 69.0547 71.4428 69.0547Z" fill="#FFD753"/>
<path d="M81.7328 83.9668C83.721 83.9668 85.3327 82.3551 85.3327 80.3669C85.3327 78.3788 83.721 76.7671 81.7328 76.7671C79.7447 76.7671 78.133 78.3788 78.133 80.3669C78.133 82.3551 79.7447 83.9668 81.7328 83.9668Z" fill="#FFC629"/>
<path d="M106.39 169.128C106.512 169.191 106.615 169.192 106.759 169.213L113.401 169.052C113.463 169.031 113.667 169.136 113.728 169.22L117.407 174.704C117.607 175.018 117.914 175.123 118.184 174.999C118.371 174.937 118.519 174.75 118.586 174.52L120.701 168.016C120.743 167.933 120.87 167.787 120.995 167.746L127.347 165.642C127.596 165.559 127.807 165.351 127.833 165.101C127.921 164.83 127.781 164.6 127.558 164.432L122.257 160.591C122.175 160.549 122.077 160.339 122.12 160.256L122.364 153.473C122.33 153.139 122.19 152.908 121.986 152.803C121.782 152.698 121.514 152.718 121.262 152.905L115.878 157.038C115.794 157.1 115.629 157.12 115.526 157.12L109.281 155.007C109.015 154.923 108.747 154.943 108.598 155.13C108.45 155.317 108.362 155.588 108.439 155.839L110.388 162.276C110.426 162.402 110.381 162.589 110.338 162.673L106.265 168.167C106.117 168.355 106.072 168.542 106.109 168.772C106.147 168.898 106.267 169.065 106.39 169.128Z" fill="#FFE47A"/>
</g>
<defs>
<clipPath id="clip0_2099_7421">
<rect width="240" height="240" fill="white"/>
</clipPath>
</defs>
</svg>
